<svg width="1917" height="1242" viewBox="0 0 1917 1242" fill="none" xmlns="http://www.w3.org/2000/svg">
<path d="M0 0H1917M0 20.125H1917M0 40.25H1917M0 60.375H1917M0 80.5H1917M0 100.625H1917M0 120.75H1917M0 140.875H1917M0 161H1917" stroke="white" stroke-opacity="0.03"/>
<path d="M0 482H1917M0 502.125H1917M0 522.25H1917M0 542.375H1917M0 562.5H1917M0 582.625H1917M0 602.75H1917M0 622.875H1917M0 643H1917" stroke="white" stroke-opacity="0.03"/>
<path d="M0 964H1917M0 984.125H1917M0 1004.25H1917M0 1024.38H1917M0 1044.5H1917M0 1064.63H1917M0 1084.75H1917M0 1104.88H1917M0 1125H1917" stroke="white" stroke-opacity="0.03"/>
<path d="M0 1138H1917M0 1158.13H1917M0 1178.25H1917M0 1198.38H1917M0 1218.5H1917M0 1238.63H1917M0 1258.75H1917M0 1278.88H1917M0 1299H1917" stroke="white" stroke-opacity="0.03"/>
<path d="M0 161H1917M0 181.125H1917M0 201.25H1917M0 221.375H1917M0 241.5H1917M0 261.625H1917M0 281.75H1917M0 301.875H1917M0 322H1917" stroke="white" stroke-opacity="0.03"/>
<path d="M0 643H1917M0 663.125H1917M0 683.25H1917M0 703.375H1917M0 723.5H1917M0 743.625H1917M0 763.75H1917M0 783.875H1917M0 804H1917" stroke="white" stroke-opacity="0.03"/>
<path d="M0 321H1917M0 341.125H1917M0 361.25H1917M0 381.375H1917M0 401.5H1917M0 421.625H1917M0 441.75H1917M0 461.875H1917M0 482H1917" stroke="white" stroke-opacity="0.03"/>
<path d="M0 803H1917M0 823.125H1917M0 843.25H1917M0 863.375H1917M0 883.5H1917M0 903.625H1917M0 923.75H1917M0 943.875H1917M0 964H1917" stroke="white" stroke-opacity="0.03"/>
</svg>
